<svg width="170" height="170" viewBox="0 0 170 170" fill="none" xmlns="http://www.w3.org/2000/svg">
<g id="qr">
<path id="Vector" d="M8.34483 0.275864H0.275864V8.34483H8.34483V0.275864Z" fill="black"/>
<path id="Vector_2" d="M8.34483 8.34482H0.275864V16.4138H8.34483V8.34482Z" fill="black"/>
<path id="Vector_3" d="M8.34483 16.4138H0.275864V24.4828H8.34483V16.4138Z" fill="black"/>
<path id="Vector_4" d="M8.34483 24.4828H0.275864V32.5517H8.34483V24.4828Z" fill="black"/>
<path id="Vector_5" d="M8.34483 32.5517H0.275864V40.6207H8.34483V32.5517Z" fill="black"/>
<path id="Vector_6" d="M8.34483 40.6207H0.275864V48.6897H8.34483V40.6207Z" fill="black"/>
<path id="Vector_7" d="M8.34483 48.6897H0.275864V56.7586H8.34483V48.6897Z" fill="black"/>
<path id="Vector_8" d="M8.34483 64.8276H0.275864V72.8966H8.34483V64.8276Z" fill="black"/>
<path id="Vector_9" d="M8.34483 80.9655H0.275864V89.0345H8.34483V80.9655Z" fill="black"/>
<path id="Vector_10" d="M8.34483 89.0345H0.275864V97.1034H8.34483V89.0345Z" fill="black"/>
<path id="Vector_11" d="M8.34483 97.1034H0.275864V105.172H8.34483V97.1034Z" fill="black"/>
<path id="Vector_12" d="M8.34483 113.241H0.275864V121.31H8.34483V113.241Z" fill="black"/>
<path id="Vector_13" d="M8.34483 121.31H0.275864V129.379H8.34483V121.31Z" fill="black"/>
<path id="Vector_14" d="M8.34483 129.379H0.275864V137.448H8.34483V129.379Z" fill="black"/>
<path id="Vector_15" d="M8.34483 137.448H0.275864V145.517H8.34483V137.448Z" fill="black"/>
<path id="Vector_16" d="M8.34483 145.517H0.275864V153.586H8.34483V145.517Z" fill="black"/>
<path id="Vector_17" d="M8.34483 153.586H0.275864V161.655H8.34483V153.586Z" fill="black"/>
<path id="Vector_18" d="M8.34483 161.655H0.275864V169.724H8.34483V161.655Z" fill="black"/>
<path id="Vector_19" d="M16.4138 0.275864H8.34483V8.34483H16.4138V0.275864Z" fill="black"/>
<path id="Vector_20" d="M16.4138 48.6897H8.34483V56.7586H16.4138V48.6897Z" fill="black"/>
<path id="Vector_21" d="M16.4138 64.8276H8.34483V72.8966H16.4138V64.8276Z" fill="black"/>
<path id="Vector_22" d="M16.4138 72.8965H8.34483V80.9655H16.4138V72.8965Z" fill="black"/>
<path id="Vector_23" d="M16.4138 97.1034H8.34483V105.172H16.4138V97.1034Z" fill="black"/>
<path id="Vector_24" d="M16.4138 113.241H8.34483V121.31H16.4138V113.241Z" fill="black"/>
<path id="Vector_25" d="M16.4138 161.655H8.34483V169.724H16.4138V161.655Z" fill="black"/>
<path id="Vector_26" d="M24.4828 0.275864H16.4138V8.34483H24.4828V0.275864Z" fill="black"/>
<path id="Vector_27" d="M24.4828 16.4138H16.4138V24.4828H24.4828V16.4138Z" fill="black"/>
<path id="Vector_28" d="M24.4828 24.4828H16.4138V32.5517H24.4828V24.4828Z" fill="black"/>
<path id="Vector_29" d="M24.4828 32.5517H16.4138V40.6207H24.4828V32.5517Z" fill="black"/>
<path id="Vector_30" d="M24.4828 48.6897H16.4138V56.7586H24.4828V48.6897Z" fill="black"/>
<path id="Vector_31" d="M24.4828 64.8276H16.4138V72.8966H24.4828V64.8276Z" fill="black"/>
<path id="Vector_32" d="M24.4828 72.8965H16.4138V80.9655H24.4828V72.8965Z" fill="black"/>
<path id="Vector_33" d="M24.4828 80.9655H16.4138V89.0345H24.4828V80.9655Z" fill="black"/>
<path id="Vector_34" d="M24.4828 89.0345H16.4138V97.1034H24.4828V89.0345Z" fill="black"/>
<path id="Vector_35" d="M24.4828 97.1034H16.4138V105.172H24.4828V97.1034Z" fill="black"/>
<path id="Vector_36" d="M24.4828 113.241H16.4138V121.31H24.4828V113.241Z" fill="black"/>
<path id="Vector_37" d="M24.4828 129.379H16.4138V137.448H24.4828V129.379Z" fill="black"/>
<path id="Vector_38" d="M24.4828 137.448H16.4138V145.517H24.4828V137.448Z" fill="black"/>
<path id="Vector_39" d="M24.4828 145.517H16.4138V153.586H24.4828V145.517Z" fill="black"/>
<path id="Vector_40" d="M24.4828 161.655H16.4138V169.724H24.4828V161.655Z" fill="black"/>
<path id="Vector_41" d="M32.5517 0.275864H24.4828V8.34483H32.5517V0.275864Z" fill="black"/>
<path id="Vector_42" d="M32.5517 16.4138H24.4828V24.4828H32.5517V16.4138Z" fill="black"/>
<path id="Vector_43" d="M32.5517 24.4828H24.4828V32.5517H32.5517V24.4828Z" fill="black"/>
<path id="Vector_44" d="M32.5517 32.5517H24.4828V40.6207H32.5517V32.5517Z" fill="black"/>
<path id="Vector_45" d="M32.5517 48.6897H24.4828V56.7586H32.5517V48.6897Z" fill="black"/>
<path id="Vector_46" d="M32.5517 80.9655H24.4828V89.0345H32.5517V80.9655Z" fill="black"/>
<path id="Vector_47" d="M32.5517 97.1034H24.4828V105.172H32.5517V97.1034Z" fill="black"/>
<path id="Vector_48" d="M32.5517 113.241H24.4828V121.31H32.5517V113.241Z" fill="black"/>
<path id="Vector_49" d="M32.5517 129.379H24.4828V137.448H32.5517V129.379Z" fill="black"/>
<path id="Vector_50" d="M32.5517 137.448H24.4828V145.517H32.5517V137.448Z" fill="black"/>
<path id="Vector_51" d="M32.5517 145.517H24.4828V153.586H32.5517V145.517Z" fill="black"/>
<path id="Vector_52" d="M32.5517 161.655H24.4828V169.724H32.5517V161.655Z" fill="black"/>
<path id="Vector_53" d="M40.6207 0.275864H32.5517V8.34483H40.6207V0.275864Z" fill="black"/>
<path id="Vector_54" d="M40.6207 16.4138H32.5517V24.4828H40.6207V16.4138Z" fill="black"/>
<path id="Vector_55" d="M40.6207 24.4828H32.5517V32.5517H40.6207V24.4828Z" fill="black"/>
<path id="Vector_56" d="M40.6207 32.5517H32.5517V40.6207H40.6207V32.5517Z" fill="black"/>
<path id="Vector_57" d="M40.6207 48.6897H32.5517V56.7586H40.6207V48.6897Z" fill="black"/>
<path id="Vector_58" d="M40.6207 64.8276H32.5517V72.8966H40.6207V64.8276Z" fill="black"/>
<path id="Vector_59" d="M40.6207 72.8965H32.5517V80.9655H40.6207V72.8965Z" fill="black"/>
<path id="Vector_60" d="M40.6207 89.0345H32.5517V97.1034H40.6207V89.0345Z" fill="black"/>
<path id="Vector_61" d="M40.6207 97.1034H32.5517V105.172H40.6207V97.1034Z" fill="black"/>
<path id="Vector_62" d="M40.6207 113.241H32.5517V121.31H40.6207V113.241Z" fill="black"/>
<path id="Vector_63" d="M40.6207 129.379H32.5517V137.448H40.6207V129.379Z" fill="black"/>
<path id="Vector_64" d="M40.6207 137.448H32.5517V145.517H40.6207V137.448Z" fill="black"/>
<path id="Vector_65" d="M40.6207 145.517H32.5517V153.586H40.6207V145.517Z" fill="black"/>
<path id="Vector_66" d="M40.6207 161.655H32.5517V169.724H40.6207V161.655Z" fill="black"/>
<path id="Vector_67" d="M48.6897 0.275864H40.6207V8.34483H48.6897V0.275864Z" fill="black"/>
<path id="Vector_68" d="M48.6897 48.6897H40.6207V56.7586H48.6897V48.6897Z" fill="black"/>
<path id="Vector_69" d="M48.6897 64.8276H40.6207V72.8966H48.6897V64.8276Z" fill="black"/>
<path id="Vector_70" d="M48.6897 72.8965H40.6207V80.9655H48.6897V72.8965Z" fill="black"/>
<path id="Vector_71" d="M48.6897 80.9655H40.6207V89.0345H48.6897V80.9655Z" fill="black"/>
<path id="Vector_72" d="M48.6897 89.0345H40.6207V97.1034H48.6897V89.0345Z" fill="black"/>
<path id="Vector_73" d="M48.6897 97.1034H40.6207V105.172H48.6897V97.1034Z" fill="black"/>
<path id="Vector_74" d="M48.6897 113.241H40.6207V121.31H48.6897V113.241Z" fill="black"/>
<path id="Vector_75" d="M48.6897 161.655H40.6207V169.724H48.6897V161.655Z" fill="black"/>
<path id="Vector_76" d="M56.7586 0.275864H48.6897V8.34483H56.7586V0.275864Z" fill="black"/>
<path id="Vector_77" d="M56.7586 8.34482H48.6897V16.4138H56.7586V8.34482Z" fill="black"/>
<path id="Vector_78" d="M56.7586 16.4138H48.6897V24.4828H56.7586V16.4138Z" fill="black"/>
<path id="Vector_79" d="M56.7586 24.4828H48.6897V32.5517H56.7586V24.4828Z" fill="black"/>
<path id="Vector_80" d="M56.7586 32.5517H48.6897V40.6207H56.7586V32.5517Z" fill="black"/>
<path id="Vector_81" d="M56.7586 40.6207H48.6897V48.6897H56.7586V40.6207Z" fill="black"/>
<path id="Vector_82" d="M56.7586 48.6897H48.6897V56.7586H56.7586V48.6897Z" fill="black"/>
<path id="Vector_83" d="M56.7586 64.8276H48.6897V72.8966H56.7586V64.8276Z" fill="black"/>
<path id="Vector_84" d="M56.7586 80.9655H48.6897V89.0345H56.7586V80.9655Z" fill="black"/>
<path id="Vector_85" d="M56.7586 97.1034H48.6897V105.172H56.7586V97.1034Z" fill="black"/>
<path id="Vector_86" d="M56.7586 113.241H48.6897V121.31H56.7586V113.241Z" fill="black"/>
<path id="Vector_87" d="M56.7586 121.31H48.6897V129.379H56.7586V121.31Z" fill="black"/>
<path id="Vector_88" d="M56.7586 129.379H48.6897V137.448H56.7586V129.379Z" fill="black"/>
<path id="Vector_89" d="M56.7586 137.448H48.6897V145.517H56.7586V137.448Z" fill="black"/>
<path id="Vector_90" d="M56.7586 145.517H48.6897V153.586H56.7586V145.517Z" fill="black"/>
<path id="Vector_91" d="M56.7586 153.586H48.6897V161.655H56.7586V153.586Z" fill="black"/>
<path id="Vector_92" d="M56.7586 161.655H48.6897V169.724H56.7586V161.655Z" fill="black"/>
<path id="Vector_93" d="M64.8276 64.8276H56.7586V72.8966H64.8276V64.8276Z" fill="black"/>
<path id="Vector_94" d="M64.8276 72.8965H56.7586V80.9655H64.8276V72.8965Z" fill="black"/>
<path id="Vector_95" d="M64.8276 89.0345H56.7586V97.1034H64.8276V89.0345Z" fill="black"/>
<path id="Vector_96" d="M64.8276 97.1034H56.7586V105.172H64.8276V97.1034Z" fill="black"/>
<path id="Vector_97" d="M72.8966 16.4138H64.8276V24.4828H72.8966V16.4138Z" fill="black"/>
<path id="Vector_98" d="M72.8966 48.6897H64.8276V56.7586H72.8966V48.6897Z" fill="black"/>
<path id="Vector_99" d="M72.8966 56.7586H64.8276V64.8276H72.8966V56.7586Z" fill="black"/>
<path id="Vector_100" d="M72.8966 64.8276H64.8276V72.8966H72.8966V64.8276Z" fill="black"/>
<path id="Vector_101" d="M72.8966 80.9655H64.8276V89.0345H72.8966V80.9655Z" fill="black"/>
<path id="Vector_102" d="M72.8966 105.172H64.8276V113.241H72.8966V105.172Z" fill="black"/>
<path id="Vector_103" d="M72.8966 113.241H64.8276V121.31H72.8966V113.241Z" fill="black"/>
<path id="Vector_104" d="M72.8966 121.31H64.8276V129.379H72.8966V121.31Z" fill="black"/>
<path id="Vector_105" d="M72.8966 129.379H64.8276V137.448H72.8966V129.379Z" fill="black"/>
<path id="Vector_106" d="M72.8966 145.517H64.8276V153.586H72.8966V145.517Z" fill="black"/>
<path id="Vector_107" d="M72.8966 153.586H64.8276V161.655H72.8966V153.586Z" fill="black"/>
<path id="Vector_108" d="M72.8966 161.655H64.8276V169.724H72.8966V161.655Z" fill="black"/>
<path id="Vector_109" d="M80.9655 0.275864H72.8966V8.34483H80.9655V0.275864Z" fill="black"/>
<path id="Vector_110" d="M80.9655 8.34482H72.8966V16.4138H80.9655V8.34482Z" fill="black"/>
<path id="Vector_111" d="M80.9655 16.4138H72.8966V24.4828H80.9655V16.4138Z" fill="black"/>
<path id="Vector_112" d="M80.9655 24.4828H72.8966V32.5517H80.9655V24.4828Z" fill="black"/>
<path id="Vector_113" d="M80.9655 56.7586H72.8966V64.8276H80.9655V56.7586Z" fill="black"/>
<path id="Vector_114" d="M80.9655 64.8276H72.8966V72.8966H80.9655V64.8276Z" fill="black"/>
<path id="Vector_115" d="M80.9655 72.8965H72.8966V80.9655H80.9655V72.8965Z" fill="black"/>
<path id="Vector_116" d="M80.9655 80.9655H72.8966V89.0345H80.9655V80.9655Z" fill="black"/>
<path id="Vector_117" d="M80.9655 113.241H72.8966V121.31H80.9655V113.241Z" fill="black"/>
<path id="Vector_118" d="M80.9655 121.31H72.8966V129.379H80.9655V121.31Z" fill="black"/>
<path id="Vector_119" d="M80.9655 129.379H72.8966V137.448H80.9655V129.379Z" fill="black"/>
<path id="Vector_120" d="M80.9655 145.517H72.8966V153.586H80.9655V145.517Z" fill="black"/>
<path id="Vector_121" d="M89.0345 8.34482H80.9655V16.4138H89.0345V8.34482Z" fill="black"/>
<path id="Vector_122" d="M89.0345 32.5517H80.9655V40.6207H89.0345V32.5517Z" fill="black"/>
<path id="Vector_123" d="M89.0345 48.6897H80.9655V56.7586H89.0345V48.6897Z" fill="black"/>
<path id="Vector_124" d="M89.0345 64.8276H80.9655V72.8966H89.0345V64.8276Z" fill="black"/>
<path id="Vector_125" d="M89.0345 72.8965H80.9655V80.9655H89.0345V72.8965Z" fill="black"/>
<path id="Vector_126" d="M89.0345 80.9655H80.9655V89.0345H89.0345V80.9655Z" fill="black"/>
<path id="Vector_127" d="M89.0345 89.0345H80.9655V97.1034H89.0345V89.0345Z" fill="black"/>
<path id="Vector_128" d="M89.0345 121.31H80.9655V129.379H89.0345V121.31Z" fill="black"/>
<path id="Vector_129" d="M89.0345 153.586H80.9655V161.655H89.0345V153.586Z" fill="black"/>
<path id="Vector_130" d="M89.0345 161.655H80.9655V169.724H89.0345V161.655Z" fill="black"/>
<path id="Vector_131" d="M97.1035 0.275864H89.0345V8.34483H97.1035V0.275864Z" fill="black"/>
<path id="Vector_132" d="M97.1035 8.34482H89.0345V16.4138H97.1035V8.34482Z" fill="black"/>
<path id="Vector_133" d="M97.1035 16.4138H89.0345V24.4828H97.1035V16.4138Z" fill="black"/>
<path id="Vector_134" d="M97.1035 24.4828H89.0345V32.5517H97.1035V24.4828Z" fill="black"/>
<path id="Vector_135" d="M97.1035 56.7586H89.0345V64.8276H97.1035V56.7586Z" fill="black"/>
<path id="Vector_136" d="M97.1035 64.8276H89.0345V72.8966H97.1035V64.8276Z" fill="black"/>
<path id="Vector_137" d="M97.1035 105.172H89.0345V113.241H97.1035V105.172Z" fill="black"/>
<path id="Vector_138" d="M97.1035 113.241H89.0345V121.31H97.1035V113.241Z" fill="black"/>
<path id="Vector_139" d="M97.1035 121.31H89.0345V129.379H97.1035V121.31Z" fill="black"/>
<path id="Vector_140" d="M97.1035 129.379H89.0345V137.448H97.1035V129.379Z" fill="black"/>
<path id="Vector_141" d="M105.172 0.275864H97.1035V8.34483H105.172V0.275864Z" fill="black"/>
<path id="Vector_142" d="M105.172 16.4138H97.1035V24.4828H105.172V16.4138Z" fill="black"/>
<path id="Vector_143" d="M105.172 32.5517H97.1035V40.6207H105.172V32.5517Z" fill="black"/>
<path id="Vector_144" d="M105.172 40.6207H97.1035V48.6897H105.172V40.6207Z" fill="black"/>
<path id="Vector_145" d="M105.172 48.6897H97.1035V56.7586H105.172V48.6897Z" fill="black"/>
<path id="Vector_146" d="M105.172 56.7586H97.1035V64.8276H105.172V56.7586Z" fill="black"/>
<path id="Vector_147" d="M105.172 80.9655H97.1035V89.0345H105.172V80.9655Z" fill="black"/>
<path id="Vector_148" d="M105.172 97.1034H97.1035V105.172H105.172V97.1034Z" fill="black"/>
<path id="Vector_149" d="M105.172 121.31H97.1035V129.379H105.172V121.31Z" fill="black"/>
<path id="Vector_150" d="M105.172 145.517H97.1035V153.586H105.172V145.517Z" fill="black"/>
<path id="Vector_151" d="M105.172 161.655H97.1035V169.724H105.172V161.655Z" fill="black"/>
<path id="Vector_152" d="M113.241 64.8276H105.172V72.8966H113.241V64.8276Z" fill="black"/>
<path id="Vector_153" d="M113.241 105.172H105.172V113.241H113.241V105.172Z" fill="black"/>
<path id="Vector_154" d="M113.241 113.241H105.172V121.31H113.241V113.241Z" fill="black"/>
<path id="Vector_155" d="M113.241 121.31H105.172V129.379H113.241V121.31Z" fill="black"/>
<path id="Vector_156" d="M113.241 129.379H105.172V137.448H113.241V129.379Z" fill="black"/>
<path id="Vector_157" d="M121.31 0.275864H113.241V8.34483H121.31V0.275864Z" fill="black"/>
<path id="Vector_158" d="M121.31 8.34482H113.241V16.4138H121.31V8.34482Z" fill="black"/>
<path id="Vector_159" d="M121.31 16.4138H113.241V24.4828H121.31V16.4138Z" fill="black"/>
<path id="Vector_160" d="M121.31 24.4828H113.241V32.5517H121.31V24.4828Z" fill="black"/>
<path id="Vector_161" d="M121.31 32.5517H113.241V40.6207H121.31V32.5517Z" fill="black"/>
<path id="Vector_162" d="M121.31 40.6207H113.241V48.6897H121.31V40.6207Z" fill="black"/>
<path id="Vector_163" d="M121.31 48.6897H113.241V56.7586H121.31V48.6897Z" fill="black"/>
<path id="Vector_164" d="M121.31 64.8276H113.241V72.8966H121.31V64.8276Z" fill="black"/>
<path id="Vector_165" d="M121.31 72.8965H113.241V80.9655H121.31V72.8965Z" fill="black"/>
<path id="Vector_166" d="M121.31 89.0345H113.241V97.1034H121.31V89.0345Z" fill="black"/>
<path id="Vector_167" d="M121.31 97.1034H113.241V105.172H121.31V97.1034Z" fill="black"/>
<path id="Vector_168" d="M121.31 113.241H113.241V121.31H121.31V113.241Z" fill="black"/>
<path id="Vector_169" d="M121.31 129.379H113.241V137.448H121.31V129.379Z" fill="black"/>
<path id="Vector_170" d="M121.31 137.448H113.241V145.517H121.31V137.448Z" fill="black"/>
<path id="Vector_171" d="M121.31 153.586H113.241V161.655H121.31V153.586Z" fill="black"/>
<path id="Vector_172" d="M121.31 161.655H113.241V169.724H121.31V161.655Z" fill="black"/>
<path id="Vector_173" d="M129.379 0.275864H121.31V8.34483H129.379V0.275864Z" fill="black"/>
<path id="Vector_174" d="M129.379 48.6897H121.31V56.7586H129.379V48.6897Z" fill="black"/>
<path id="Vector_175" d="M129.379 72.8965H121.31V80.9655H129.379V72.8965Z" fill="black"/>
<path id="Vector_176" d="M129.379 89.0345H121.31V97.1034H129.379V89.0345Z" fill="black"/>
<path id="Vector_177" d="M129.379 105.172H121.31V113.241H129.379V105.172Z" fill="black"/>
<path id="Vector_178" d="M129.379 113.241H121.31V121.31H129.379V113.241Z" fill="black"/>
<path id="Vector_179" d="M129.379 145.517H121.31V153.586H129.379V145.517Z" fill="black"/>
<path id="Vector_180" d="M137.448 0.275864H129.379V8.34483H137.448V0.275864Z" fill="black"/>
<path id="Vector_181" d="M137.448 16.4138H129.379V24.4828H137.448V16.4138Z" fill="black"/>
<path id="Vector_182" d="M137.448 24.4828H129.379V32.5517H137.448V24.4828Z" fill="black"/>
<path id="Vector_183" d="M137.448 32.5517H129.379V40.6207H137.448V32.5517Z" fill="black"/>
<path id="Vector_184" d="M137.448 48.6897H129.379V56.7586H137.448V48.6897Z" fill="black"/>
<path id="Vector_185" d="M137.448 80.9655H129.379V89.0345H137.448V80.9655Z" fill="black"/>
<path id="Vector_186" d="M137.448 105.172H129.379V113.241H137.448V105.172Z" fill="black"/>
<path id="Vector_187" d="M137.448 113.241H129.379V121.31H137.448V113.241Z" fill="black"/>
<path id="Vector_188" d="M137.448 121.31H129.379V129.379H137.448V121.31Z" fill="black"/>
<path id="Vector_189" d="M137.448 129.379H129.379V137.448H137.448V129.379Z" fill="black"/>
<path id="Vector_190" d="M137.448 137.448H129.379V145.517H137.448V137.448Z" fill="black"/>
<path id="Vector_191" d="M137.448 145.517H129.379V153.586H137.448V145.517Z" fill="black"/>
<path id="Vector_192" d="M145.517 0.275864H137.448V8.34483H145.517V0.275864Z" fill="black"/>
<path id="Vector_193" d="M145.517 16.4138H137.448V24.4828H145.517V16.4138Z" fill="black"/>
<path id="Vector_194" d="M145.517 24.4828H137.448V32.5517H145.517V24.4828Z" fill="black"/>
<path id="Vector_195" d="M145.517 32.5517H137.448V40.6207H145.517V32.5517Z" fill="black"/>
<path id="Vector_196" d="M145.517 48.6897H137.448V56.7586H145.517V48.6897Z" fill="black"/>
<path id="Vector_197" d="M145.517 80.9655H137.448V89.0345H145.517V80.9655Z" fill="black"/>
<path id="Vector_198" d="M145.517 105.172H137.448V113.241H145.517V105.172Z" fill="black"/>
<path id="Vector_199" d="M145.517 137.448H137.448V145.517H145.517V137.448Z" fill="black"/>
<path id="Vector_200" d="M153.586 0.275864H145.517V8.34483H153.586V0.275864Z" fill="black"/>
<path id="Vector_201" d="M153.586 16.4138H145.517V24.4828H153.586V16.4138Z" fill="black"/>
<path id="Vector_202" d="M153.586 24.4828H145.517V32.5517H153.586V24.4828Z" fill="black"/>
<path id="Vector_203" d="M153.586 32.5517H145.517V40.6207H153.586V32.5517Z" fill="black"/>
<path id="Vector_204" d="M153.586 48.6897H145.517V56.7586H153.586V48.6897Z" fill="black"/>
<path id="Vector_205" d="M153.586 64.8276H145.517V72.8966H153.586V64.8276Z" fill="black"/>
<path id="Vector_206" d="M153.586 80.9655H145.517V89.0345H153.586V80.9655Z" fill="black"/>
<path id="Vector_207" d="M161.655 0.275864H153.586V8.34483H161.655V0.275864Z" fill="black"/>
<path id="Vector_208" d="M161.655 48.6897H153.586V56.7586H161.655V48.6897Z" fill="black"/>
<path id="Vector_209" d="M161.655 80.9655H153.586V89.0345H161.655V80.9655Z" fill="black"/>
<path id="Vector_210" d="M161.655 89.0345H153.586V97.1034H161.655V89.0345Z" fill="black"/>
<path id="Vector_211" d="M161.655 113.241H153.586V121.31H161.655V113.241Z" fill="black"/>
<path id="Vector_212" d="M161.655 129.379H153.586V137.448H161.655V129.379Z" fill="black"/>
<path id="Vector_213" d="M161.655 137.448H153.586V145.517H161.655V137.448Z" fill="black"/>
<path id="Vector_214" d="M161.655 153.586H153.586V161.655H161.655V153.586Z" fill="black"/>
<path id="Vector_215" d="M161.655 161.655H153.586V169.724H161.655V161.655Z" fill="black"/>
<path id="Vector_216" d="M169.724 0.275864H161.655V8.34483H169.724V0.275864Z" fill="black"/>
<path id="Vector_217" d="M169.724 8.34482H161.655V16.4138H169.724V8.34482Z" fill="black"/>
<path id="Vector_218" d="M169.724 16.4138H161.655V24.4828H169.724V16.4138Z" fill="black"/>
<path id="Vector_219" d="M169.724 24.4828H161.655V32.5517H169.724V24.4828Z" fill="black"/>
<path id="Vector_220" d="M169.724 32.5517H161.655V40.6207H169.724V32.5517Z" fill="black"/>
<path id="Vector_221" d="M169.724 40.6207H161.655V48.6897H169.724V40.6207Z" fill="black"/>
<path id="Vector_222" d="M169.724 48.6897H161.655V56.7586H169.724V48.6897Z" fill="black"/>
<path id="Vector_223" d="M169.724 72.8965H161.655V80.9655H169.724V72.8965Z" fill="black"/>
<path id="Vector_224" d="M169.724 80.9655H161.655V89.0345H169.724V80.9655Z" fill="black"/>
<path id="Vector_225" d="M169.724 89.0345H161.655V97.1034H169.724V89.0345Z" fill="black"/>
<path id="Vector_226" d="M169.724 97.1034H161.655V105.172H169.724V97.1034Z" fill="black"/>
<path id="Vector_227" d="M169.724 105.172H161.655V113.241H169.724V105.172Z" fill="black"/>
<path id="Vector_228" d="M169.724 113.241H161.655V121.31H169.724V113.241Z" fill="black"/>
<path id="Vector_229" d="M169.724 121.31H161.655V129.379H169.724V121.31Z" fill="black"/>
<path id="Vector_230" d="M169.724 129.379H161.655V137.448H169.724V129.379Z" fill="black"/>
<path id="Vector_231" d="M169.724 145.517H161.655V153.586H169.724V145.517Z" fill="black"/>
<path id="Vector_232" d="M169.724 161.655H161.655V169.724H169.724V161.655Z" fill="black"/>
</g>
</svg>
